<svg id="组件_1_1" data-name="组件 1 – 1" xmlns="http://www.w3.org/2000/svg" width="272" height="97" viewBox="0 0 272 97">
  <g id="矩形_1" data-name="矩形 1" fill="rgba(255,255,255,0)" stroke="#fff" stroke-linecap="round" stroke-linejoin="round" stroke-width="5">
    <rect width="272" height="97" rx="4" stroke="none"/>
    <rect x="2.5" y="2.5" width="267" height="92" rx="1.5" fill="none"/>
  </g>
  <text id="build_your_body" data-name="build your body" transform="translate(130 56)" fill="#fff" font-size="16" font-family="SegoeUI-Italic, Segoe UI" font-style="italic"><tspan x="0" y="17">build your body</tspan></text>
  <path id="健身房" d="M30.689,65.14V30.171L17.5,31.8V64.163l13.193.977Zm4.707.349L51.15,66.655v-39L35.4,29.592v35.9ZM32.069,69.9,2.18,67.688A2.335,2.335,0,0,1,0,65.378V31.33a2.333,2.333,0,0,1,2.06-2.3l12-1.48V26.039L5.237,27.253a2.337,2.337,0,0,1-2.675-2.3V9.734a2.332,2.332,0,0,1,2.01-2.3L55.715.024a2.344,2.344,0,0,1,2.7,2.3V17.914a2.328,2.328,0,0,1-2.031,2.3l-14.594,2.01v1.906l11.324-1.4a2.322,2.322,0,0,1,.849.014,2.279,2.279,0,0,1,.439.133l16.569,6.282a2.323,2.323,0,0,1,1.508,2.164V65.371a2.329,2.329,0,0,1-1.826,2.262L54.087,71.4a3.259,3.259,0,0,1-.361.063,2.77,2.77,0,0,1-.481,0L33.683,70.019a2.46,2.46,0,0,1-1.614-.119Zm-19.28-6.08V32.377l-8.083,1V63.221l8.083.6ZM55.85,28.4V66.243l11.919-2.715V32.921L55.85,28.4ZM37.08,24.706V22.87L18.756,25.39c.007.084.014.174.014.258V26.96l18.31-2.255ZM7.262,22.29,53.705,15.9V5.015L7.262,11.744V22.291Zm6.533-3.874a2.323,2.323,0,1,1-.694-4.593l17.057-2.5a2.323,2.323,0,1,1,.694,4.593Zm27.157-3.979a2.323,2.323,0,1,1-.694-4.593l7.078-1.04a2.323,2.323,0,1,1,.694,4.593ZM20.426,46.462a2.35,2.35,0,0,1,4.7,0v6.9a2.35,2.35,0,0,1-4.7,0Z" transform="translate(23.525 12.763)" fill="#fff"/>
  <text id="NOBODY" transform="translate(107 14)" fill="#fff" font-size="38" font-family="Bauhaus93, 'Bauhaus \39 3'"><tspan x="0" y="34">NOBODY</tspan></text>
</svg>
